<svg width="14" height="14" viewBox="0 0 14 14" fill="none" xmlns="http://www.w3.org/2000/svg">
<path d="M12.9955 13.9623C11.4092 13.9623 9.86294 13.6086 8.35678 12.9013C6.85061 12.1939 5.51636 11.2593 4.35403 10.0975C3.1917 8.93567 2.25711 7.60142 1.55026 6.09476C0.843418 4.5881 0.48975 3.04185 0.489258 1.456C0.489258 1.23465 0.563041 1.05019 0.710608 0.902624C0.858175 0.755058 1.04263 0.681274 1.26398 0.681274H4.25221C4.42437 0.681274 4.57809 0.736612 4.71336 0.847287C4.84863 0.957962 4.92856 1.09938 4.95315 1.27154L5.43274 3.85396C5.45734 4.02612 5.45414 4.18303 5.42315 4.3247C5.39216 4.46636 5.32158 4.59228 5.21139 4.70247L3.44059 6.51016C3.95708 7.39556 4.60268 8.22562 5.37741 9.00035C6.15213 9.77507 7.00679 10.4453 7.94138 11.0109L9.67529 9.27704C9.78596 9.16636 9.93058 9.08348 10.1091 9.02839C10.2877 8.9733 10.4628 8.9578 10.6345 8.9819L13.18 9.49839C13.3522 9.53528 13.4936 9.61841 13.6043 9.74778C13.7149 9.87714 13.7703 10.0277 13.7703 10.1993V13.1876C13.7703 13.4089 13.6965 13.5934 13.5489 13.7409C13.4013 13.8885 13.2169 13.9623 12.9955 13.9623Z" fill="white"/>
</svg>
