<svg width="14" height="17" viewBox="0 0 14 17" fill="none" xmlns="http://www.w3.org/2000/svg">
<path d="M7.12965 8.33406C7.58571 8.33406 7.97626 8.17154 8.3013 7.8465C8.6258 7.522 8.78804 7.13173 8.78804 6.67567C8.78804 6.21962 8.6258 5.82906 8.3013 5.50402C7.97626 5.17953 7.58571 5.01728 7.12965 5.01728C6.6736 5.01728 6.28332 5.17953 5.95883 5.50402C5.63379 5.82906 5.47126 6.21962 5.47126 6.67567C5.47126 7.13173 5.63379 7.522 5.95883 7.8465C6.28332 8.17154 6.6736 8.33406 7.12965 8.33406ZM7.12965 16.3151C7.01909 16.3151 6.90853 16.2943 6.79798 16.2529C6.68742 16.2114 6.59068 16.1561 6.50776 16.087C4.49005 14.3043 2.98368 12.6495 1.98864 11.1226C0.993611 9.59527 0.496094 8.16822 0.496094 6.84151C0.496094 4.76852 1.16304 3.11705 2.49694 1.88707C3.83029 0.6571 5.37452 0.0421143 7.12965 0.0421143C8.88478 0.0421143 10.429 0.6571 11.7624 1.88707C13.0963 3.11705 13.7632 4.76852 13.7632 6.84151C13.7632 8.16822 13.2657 9.59527 12.2707 11.1226C11.2756 12.6495 9.76926 14.3043 7.75155 16.087C7.66863 16.1561 7.57189 16.2114 7.46133 16.2529C7.35077 16.2943 7.24021 16.3151 7.12965 16.3151Z" fill="white"/>
</svg>
