<svg width="21" height="15" viewBox="0 0 21 15" fill="none" xmlns="http://www.w3.org/2000/svg">
<path d="M0.762432 4.41333C0.96114 4.54272 1.11826 4.64901 1.28 4.75529C3.76153 6.41427 6.24769 8.06863 8.72923 9.72761C9.88913 10.4993 11.123 10.504 12.2921 9.72761C14.8707 8.00855 17.4446 6.2895 20.0232 4.56583C20.0879 4.52424 20.1572 4.48265 20.245 4.42257C20.2497 4.50575 20.2543 4.57045 20.2543 4.63052C20.2543 7.23221 20.2543 9.82927 20.2543 12.431C20.2543 13.443 19.6073 14.1177 18.5953 14.1546C18.5398 14.1546 18.489 14.1546 18.4336 14.1546C13.147 14.1546 7.86046 14.1546 2.57853 14.1546C2.15339 14.1546 1.75135 14.0899 1.40939 13.8219C0.96114 13.4707 0.757812 13.0132 0.757812 12.4448C0.762434 9.83389 0.757812 7.21834 0.757812 4.6028C0.762434 4.56121 0.762432 4.51037 0.762432 4.41333Z" fill="white"/>
<path d="M10.5225 0.328247C13.2027 0.328247 15.8784 0.328247 18.5586 0.328247C19.4227 0.328247 20.0882 0.850433 20.2222 1.67761C20.2777 2.00571 20.2545 2.34305 20.2453 2.67577C20.2453 2.73585 20.1529 2.80978 20.0882 2.85599C17.4172 4.63974 14.7462 6.41887 12.0752 8.20262C11.8719 8.34125 11.6639 8.47526 11.456 8.6139C10.8229 9.0298 10.1805 9.0298 9.54744 8.60465C6.99197 6.89946 4.43649 5.1989 1.88102 3.49371C1.5483 3.27189 1.21096 3.0547 0.882858 2.82365C0.822784 2.77744 0.767331 2.67577 0.767331 2.60183C0.767331 2.26911 0.748847 1.92715 0.808922 1.60367C0.938313 0.892023 1.5483 0.383701 2.26919 0.33749C2.37086 0.332869 2.4679 0.328247 2.56956 0.328247C5.22208 0.328247 7.8746 0.328247 10.5225 0.328247Z" fill="white"/>
</svg>
