<svg width="12" height="12" viewBox="0 0 12 12" fill="none" xmlns="http://www.w3.org/2000/svg">
<path d="M5.83669 0.574829C6.06411 0.574829 6.29152 0.574829 6.51894 0.574829C6.70372 0.600413 6.89134 0.61747 7.07611 0.64874C8.10233 0.824988 9.00916 1.25139 9.78522 1.94502C10.7347 2.7893 11.3288 3.83826 11.5534 5.09474C11.5875 5.29373 11.6102 5.49556 11.6358 5.69455C11.6358 5.92196 11.6358 6.14938 11.6358 6.3768C11.6301 6.40523 11.6216 6.43081 11.6188 6.45924C11.5534 7.30921 11.3089 8.10232 10.8626 8.82721C9.99558 10.2372 8.74763 11.1014 7.11875 11.4084C6.91976 11.4453 6.72077 11.4652 6.51894 11.4908C6.29152 11.4908 6.06411 11.4908 5.83669 11.4908C5.70308 11.4738 5.56948 11.4596 5.43871 11.4425C4.42955 11.2975 3.52273 10.9109 2.7353 10.2599C1.69771 9.40428 1.04957 8.30984 0.807938 6.98514C0.770982 6.78331 0.751083 6.57863 0.722656 6.3768C0.722656 6.14938 0.722656 5.92196 0.722656 5.69455C0.739713 5.56094 0.753926 5.42733 0.770983 5.29373C0.941545 4.10263 1.4447 3.07357 2.28615 2.21791C3.102 1.385 4.08842 0.864785 5.23972 0.66011C5.43587 0.623155 5.6377 0.603256 5.83669 0.574829ZM6.17497 1.30256C3.56821 1.30541 1.44186 3.4346 1.44471 6.03852C1.45039 8.64244 3.56821 10.7631 6.17213 10.7659C8.77605 10.7688 10.9052 8.6396 10.9052 6.03567C10.9081 3.42607 8.78174 1.29972 6.17497 1.30256Z" fill="black"/>
<path d="M6.54171 4.44654C6.54171 4.88432 6.54456 5.31925 6.53887 5.75703C6.53887 5.8281 6.55877 5.87358 6.61562 5.91622C7.14721 6.33694 7.67596 6.76335 8.2047 7.18691C8.34399 7.30062 8.39232 7.45128 8.33831 7.60195C8.25302 7.84642 7.96875 7.92317 7.75271 7.75545C7.46559 7.53088 7.18132 7.29778 6.89421 7.07036C6.59004 6.82589 6.28587 6.58141 5.97886 6.33978C5.86515 6.24882 5.80829 6.13795 5.81114 5.99013C5.81398 5.04635 5.81114 4.09973 5.81114 3.15595C5.81114 2.92 5.9618 2.75513 6.17216 2.75513C6.38536 2.75513 6.53603 2.92 6.53603 3.15595C6.54171 3.58804 6.54171 4.01729 6.54171 4.44654Z" fill="black"/>
</svg>
