<svg width="20" height="16" viewBox="0 0 20 16" fill="none" xmlns="http://www.w3.org/2000/svg">
<path d="M17.5559 0.935708C17.7948 0.931405 18.032 0.976097 18.2529 1.06703C18.4739 1.15795 18.6739 1.29319 18.8405 1.46439C19.0117 1.63105 19.1469 1.83102 19.2379 2.05196C19.3288 2.27291 19.3735 2.51014 19.3692 2.74903V13.6289C19.3735 13.8678 19.3288 14.1051 19.2379 14.326C19.1469 14.5469 19.0117 14.7469 18.8405 14.9136C18.6739 15.0848 18.4739 15.22 18.2529 15.3109C18.032 15.4019 17.7948 15.4466 17.5559 15.4423H1.84046C1.60157 15.4466 1.36434 15.4019 1.14339 15.3109C0.922449 15.22 0.722479 15.0848 0.555822 14.9136C0.384621 14.7469 0.249384 14.5469 0.158456 14.326C0.0675274 14.1051 0.0228361 13.8678 0.0271391 13.6289V2.74903C0.0228361 2.51014 0.0675274 2.27291 0.158456 2.05196C0.249384 1.83102 0.384621 1.63105 0.555822 1.46439C0.722479 1.29319 0.922449 1.15795 1.14339 1.06703C1.36434 0.976097 1.60157 0.931405 1.84046 0.935708H17.5559ZM1.84046 2.14459C1.76028 2.14182 1.68039 2.15547 1.60569 2.18472C1.53099 2.21396 1.46305 2.25817 1.40607 2.31464C1.3496 2.37162 1.30539 2.43955 1.27615 2.51426C1.24691 2.58896 1.23325 2.66885 1.23602 2.74903V4.298C2.11769 5.05342 4.01912 6.58977 6.94031 8.90705L7.28041 9.20927C7.65792 9.54401 8.06223 9.84725 8.48929 10.1159C8.83638 10.3929 9.25626 10.5633 9.69817 10.6067C10.1401 10.5633 10.56 10.3929 10.907 10.1159C11.316 9.83858 11.7071 9.53576 12.078 9.20927L12.456 8.90705C15.3772 6.5903 17.2786 5.05395 18.1603 4.298V2.74903C18.1631 2.66885 18.1494 2.58896 18.1202 2.51426C18.0909 2.43955 18.0467 2.37162 17.9903 2.31464C17.9333 2.25817 17.8654 2.21396 17.7906 2.18472C17.7159 2.15547 17.6361 2.14182 17.5559 2.14459H1.84046ZM17.5559 14.2334C17.6361 14.2361 17.7159 14.2225 17.7906 14.1932C17.8654 14.164 17.9333 14.1198 17.9903 14.0633C18.0467 14.0063 18.0909 13.9384 18.1202 13.8637C18.1494 13.789 18.1631 13.7091 18.1603 13.6289V5.88486C17.2786 6.5903 15.6289 7.91255 13.2112 9.85159L12.8332 10.1538C12.3761 10.5469 11.8969 10.9133 11.3979 11.2515C10.8922 11.5887 10.3051 11.7836 9.69817 11.8156C9.09123 11.7836 8.50412 11.5887 7.99848 11.2515C7.49022 10.926 7.00985 10.5588 6.56234 10.1538L6.18436 9.85159C3.7666 7.91255 2.11689 6.5903 1.23521 5.88486V13.6289C1.23244 13.7091 1.2461 13.789 1.27534 13.8637C1.30459 13.9384 1.3488 14.0063 1.40526 14.0633C1.46234 14.1199 1.5304 14.1642 1.60525 14.1934C1.6801 14.2226 1.76015 14.2363 1.84046 14.2334H17.5559Z" fill="#000080"/>
</svg>
