<svg width="14" height="12" viewBox="0 0 14 12" fill="none" xmlns="http://www.w3.org/2000/svg">
<path d="M13.3711 3.9657C13.3653 5.0692 12.9941 6.02137 12.4489 6.91048C11.6542 8.21576 10.6218 9.26882 9.47917 10.2021C8.75415 10.7885 7.98852 11.3119 7.2403 11.8668C6.99669 12.0433 6.76468 12.0433 6.51528 11.8731C4.82162 10.757 3.23817 9.49583 1.93893 7.85003C1.24871 6.97353 0.68029 6.01506 0.459883 4.86742C0.0712712 2.87481 0.964501 0.680417 3.01777 0.125513C4.25321 -0.208691 5.36684 0.163347 6.39347 0.907423C6.56168 1.02723 6.72408 1.24793 6.88649 1.25424C7.04309 1.25424 7.1939 1.02093 7.3563 0.907423C8.41194 0.138124 9.56037 -0.233914 10.819 0.157041C12.2227 0.592137 13.0231 1.6515 13.3073 3.1901C13.3247 3.29099 13.3421 3.39188 13.3479 3.49277C13.3595 3.65041 13.3595 3.81436 13.3711 3.9657ZM12.3213 3.90895C12.3155 3.8522 12.3155 3.75131 12.3097 3.65041C12.2111 2.06137 10.9698 0.957869 9.51397 1.16596C8.68455 1.28577 8.00012 1.71456 7.3969 2.31991C6.95609 2.76131 6.79368 2.76131 6.34707 2.33252C6.09186 2.08659 5.82505 1.85328 5.53504 1.66411C4.85642 1.22271 4.1256 1.01462 3.33097 1.20379C1.93893 1.53169 1.22551 2.95048 1.45752 4.50169C1.58512 5.35296 1.98533 6.07812 2.46675 6.74653C3.64999 8.39232 5.15803 9.61563 6.77628 10.7002C6.83429 10.7381 6.95609 10.7065 7.01989 10.6624C8.01752 10.0003 8.96295 9.25621 9.83298 8.40493C10.5696 7.68608 11.2424 6.91048 11.747 5.97092C12.0893 5.35927 12.3271 4.69717 12.3213 3.90895Z" fill="black"/>
</svg>
