<svg width="11" height="14" viewBox="0 0 11 14" fill="none" xmlns="http://www.w3.org/2000/svg">
<path opacity="0.4" d="M9.29473 4.65975H8.54979V3.21524C8.55747 2.82213 8.48702 2.43142 8.34252 2.06575C8.19802 1.70009 7.98234 1.36676 7.70799 1.0851C7.43365 0.803441 7.1061 0.579062 6.74436 0.42498C6.38262 0.270897 5.99388 0.190179 5.60069 0.187508C5.20751 0.184836 4.8177 0.260265 4.4539 0.409418C4.0901 0.558572 3.75953 0.778479 3.48139 1.05638C3.20324 1.33429 2.98305 1.66466 2.83359 2.02832C2.68413 2.39199 2.60838 2.78172 2.61073 3.17489V4.65975H1.86578C1.53908 4.66253 1.22664 4.79396 0.996201 5.02555C0.765761 5.25714 0.635897 5.57023 0.634766 5.89693V11.8358C0.636401 12.1632 0.767335 12.4767 0.99906 12.7081C1.23078 12.9395 1.54453 13.0699 1.87199 13.0711H9.29473C9.62251 13.0699 9.93654 12.9392 10.1683 12.7074C10.4001 12.4757 10.5308 12.1617 10.532 11.8339V5.89693C10.5308 5.56916 10.4001 5.25515 10.1683 5.02338C9.93654 4.79161 9.62251 4.6609 9.29473 4.65975ZM6.01698 8.51965V10.6501C6.01774 10.7627 5.97562 10.8713 5.89918 10.954C5.82274 11.0367 5.7177 11.0872 5.6054 11.0952C5.54668 11.0979 5.48803 11.0886 5.433 11.068C5.37796 11.0474 5.32768 11.0158 5.2852 10.9752C5.24272 10.9345 5.20892 10.8857 5.18585 10.8317C5.16278 10.7776 5.15092 10.7194 5.15098 10.6607V8.51965C4.95003 8.42143 4.78828 8.25802 4.69212 8.05608C4.59596 7.85414 4.57105 7.62558 4.62146 7.40767C4.67187 7.18975 4.79462 6.99535 4.9697 6.85615C5.14478 6.71695 5.36186 6.64118 5.58553 6.64118C5.80921 6.64118 6.02628 6.71695 6.20136 6.85615C6.37644 6.99535 6.4992 7.18975 6.54961 7.40767C6.60002 7.62558 6.57511 7.85414 6.47895 8.05608C6.38278 8.25802 6.22104 8.42143 6.02008 8.51965H6.01698ZM7.68689 4.65975H3.48045V3.17489C3.48045 2.6171 3.70204 2.08216 4.09647 1.68774C4.4909 1.29333 5.02586 1.07175 5.58367 1.07175C6.14148 1.07175 6.67644 1.29333 7.07087 1.68774C7.4653 2.08216 7.68689 2.6171 7.68689 3.17489V4.65975Z" fill="#202630"/>
</svg>
