<?xml version="1.0" encoding="utf-8"?>
<!-- Generator: Adobe Illustrator 24.0.1, SVG Export Plug-In . SVG Version: 6.00 Build 0)  -->
<svg version="1.1" id="Layer_1" xmlns="http://www.w3.org/2000/svg" xmlns:xlink="http://www.w3.org/1999/xlink" x="0px" y="0px"
	 viewBox="0 0 3920.6 1435" style="enable-background:new 0 0 3920.6 1435;" xml:space="preserve">
<style type="text/css">
	.st0{clip-path:url(#SVGID_2_);fill:#FFFFFF;}
	.st1{display:none;}
	.st2{fill:#FFFFFF;}
</style>
<g>
	<defs>
		<path id="SVGID_1_" d="M1280.4,955.2c-1-18.1-3.1-35.9-6.2-53.3h144.4c-3.3-18.2-7.6-36-12.9-53.3h-144.4
			c-5.6-18.3-12.3-36.1-20.2-53.3h144.4c-8.3-18.5-17.9-36.3-28.6-53.3h-144.5c-11.7-18.7-24.7-36.5-39-53.3h144.4
			c-16.3-19.2-34.2-37.1-53.5-53.3H1120c-24.2-20.4-50.5-38.3-78.6-53.3h144.4c-63.6-34-136.3-53.3-213.4-53.3H828H818
			c2.1,0,4.2,0,6.3,0c-248.6,2-449.5,204.1-449.5,453.1s200.9,451.1,449.4,453.1c-1.9,0-3.9,0-5.9,0h9.4h0.3h0.3h144.4
			c77.1,0,149.6-19.4,213.1-53.3h-144.4c28.1-15,54.4-32.9,78.6-53.3h144.4c19.3-16.3,37.2-34.1,53.5-53.3h-144.4
			c14.2-16.8,27.3-34.6,39-53.3h144.5c10.6-17.1,20.2-34.9,28.6-53.3h-144.4c7.8-17.2,14.5-35,20.2-53.3h144.4
			c5.3-17.4,9.7-35.2,12.9-53.3h-144.4c3.1-17.4,5.2-35.2,6.2-53.3h144.4c0.5-8.8,0.8-17.7,0.8-26.7c0-8.9-0.3-17.8-0.8-26.7H1280.4
			z M857.1,894.3c36.7,12.1,63.1,46.7,63.1,87.5c0,51-41.2,92.2-92.2,92.2s-92.2-41.2-92.2-92.2c0-35.4,19.9-66.1,49.1-81.6v-77.1
			c-69.9,18.9-121.3,82.7-121.3,158.7c0,90.9,73.5,164.4,164.4,164.4c56.7,0,106.6-28.6,136.2-72.2c17.8-26.3,28.2-58,28.2-92.2
			c0-34.2-10.4-65.9-28.2-92.2c-24.4-35.9-62.6-61.7-107.1-69.6V894.3z M784.9,1360.4v-72.8c14.1,2,28.5,3,43.1,3
			c9.8,0,19.5-0.5,29.1-1.4v72.5c-9.6,0.7-19.3,1.1-29.1,1.1C813.4,1362.8,799,1362,784.9,1360.4z M712.7,618.6v76.7
			C599.2,741,519.2,852,519.2,981.8c0,129.8,80,240.9,193.5,286.5v76.7c-154.1-48.8-265.7-193-265.7-363.2
			C447,811.6,558.6,667.5,712.7,618.6z M857.1,601.9v72.5c-9.5-0.9-19.3-1.4-29.1-1.4c-14.6,0-29,1-43.1,3v-72.8
			c14.1-1.6,28.5-2.4,43.1-2.4C837.8,600.8,847.5,601.2,857.1,601.9z M591.4,981.8c0-130.7,105.9-236.6,236.6-236.6
			c98,0,182,59.5,218,144.4h76.8C1093.6,796.3,1021.4,722,929.3,690v-75.6c161.2,44.4,279.7,192,279.7,367.3
			c0,175.3-118.5,323-279.7,367.4v-75.6c92.1-31.9,164.3-106.2,193.5-199.6H1046c-35.9,84.9-120,144.4-218,144.4
			C697.3,1218.4,591.4,1112.5,591.4,981.8z M1312.4,413.8v171.5l-102.6-54.8c-73.2-39.2-154.5-59.3-237.4-59.3
			c-167.9,0-271.2-16.4-422.1,83.3c-22.1,14.6-42.9,30.9-62.4,48.7V392.6l-170.8-48.1v169.6l0,0l0.7,0.2l0.2,0.1l0.5,0.2l0,0
			l0.4,0.2l0.3,0.1l0.2,0.1l0.4,0.2l0.1,0l0.4,0.2l0.3,0.1l0.2,0l0.4,0.2l0.1,0l0.4,0.2l0.3,0.1l0.1,0.1l0.4,0.2l0.1,0l0.6,0.3
			l0.1,0l0.4,0.2l0.1,0l0.3,0.2l0.3,0.2l0.1,0l0.4,0.2l0.1,0l0.3,0.2l0.3,0.2l0.1,0l0.4,0.2l0.1,0.1l0.2,0.2l0.3,0.2l0.1,0l0.3,0.3
			l0.1,0.1l0.2,0.2l0.3,0.2h0l0.3,0.3l0.2,0.1l0.2,0.1l0.3,0.3h0l0.3,0.2l0.2,0.1l0.1,0.2l0.3,0.2l0,0l0.2,0.2l0.2,0.2l0.1,0.1
			l0.3,0.3l0,0l0.2,0.2l0.1,0.2l0.1,0.1l0.2,0.3l0,0l0.2,0.2l0.1,0.2l0.1,0.1l0.2,0.3l0,0l0.2,0.3l0.1,0.2l0,0.1l0.2,0.3l0,0
			l0.2,0.2l0.1,0.2l0.2,0.4l0,0.1l0.1,0.2l0.1,0.2l0,0.1l0.1,0.3l0.1,0.1l0.1,0.2l0.1,0.2v0.1l0.1,0.3l0,0.1l0.1,0.2l0,0.3l0,0
			l0.1,0.3l0,0.1l0.1,0.4l0,0.1v0l0.1,0.3l0,0.2l0,0.2l0,0.3l0,0l0,0.3v0.2l0,0.2v0.3v0.3l0,0.2v0.1v0.3l0,0.2v0.1l0,0.3l0,0.1
			l0,0.2l-0.1,0.3v0v0l-0.1,0.4v0l-0.1,0.3l-0.1,0.2v0.1l-0.1,0.3l0,0.1l-0.1,0.2l-0.1,0.3v0l-0.1,0.2l-0.1,0.2l0,0v0l-0.2,0.4
			l-0.1,0.1l-0.1,0.3l-0.1,0.1l-0.1,0.1l-0.1,0.3l0,0.1l-0.1,0.2l-0.2,0.2v0l-0.2,0.2l-0.1,0.2l0,0.1l-0.5,0.7l-0.1,0.1l-0.1,0.2
			l-0.2,0.2l0,0l-0.2,0.2l-0.2,0.2l0,0l-0.2,0.2l-0.1,0.2l-0.1,0.1l-0.2,0.2l-0.1,0.1l-0.1,0.1l-0.3,0.3l-0.2,0.2l-0.2,0.2l0,0
			l-0.3,0.2l-0.2,0.2l-0.1,0.1l-0.3,0.2l-0.1,0.1l-0.1,0.1l-0.3,0.2l-0.1,0l-0.2,0.2l-0.3,0.2v0l-0.3,0.2l-0.3,0.2l0,0l-0.3,0.2
			L326,542l-0.1,0.1l-0.3,0.2l-0.1,0.1l-0.2,0.1l-0.3,0.2l0,0l-0.3,0.2l-0.3,0.2h0l-0.3,0.2l-0.2,0.1l-0.1,0l-0.3,0.2l-0.2,0.1
			l-0.2,0.1l-0.4,0.2l-0.1,0l-0.3,0.1l-0.4,0.2l-0.4,0.2l-0.3,0.1l-0.1,0l25.3,91.4h-47.2h-22.1l8.7-60.7l-15.2,60.7h-18.5
			l23.2-84.1c9.3,1.8,17.9,0.8,26-3.1c-0.7,0-1.4,0.1-2.1,0.1c-12.8,0-23.9-3.8-29.9-9.3l-0.1-0.1l-0.1-0.1l-0.2-0.1l-0.1-0.1
			l-0.1-0.1l-0.1,0l-0.1-0.1l-0.1-0.2l-0.1-0.1l-0.1-0.1l-0.1-0.1l-0.1-0.1l-0.1-0.1l0-0.1L268,538l-0.1-0.1l-0.1-0.1l0-0.1
			l-0.1-0.1l-0.1-0.1l-0.1-0.1l-0.1-0.1l-0.1-0.1l-0.1-0.2l0-0.1l-0.1-0.1l-0.1-0.2l-0.1-0.1l-0.1-0.1l0,0l-0.1-0.1l-0.1-0.2
			l-0.1-0.1l0-0.1l-0.2-0.3l-0.1-0.1l0,0l-0.2-0.3l-0.1-0.1l0,0l-0.2-0.3l-0.1-0.1v0l-0.1-0.2l-0.1-0.2l0-0.1l0,0l-0.1-0.2l-0.1-0.2
			l-0.1-0.1v0l-0.1-0.1l0-0.2l-0.1-0.2l0,0l-0.1-0.2l0-0.2l-0.1-0.1v0l-0.1-0.2l-0.1-0.3v0l0,0h0l-0.1-0.3l0-0.2l0,0l0-0.2l-0.1-0.3
			v0l0-0.2l0-0.2v-0.2l0-0.2v-0.2l0-0.2v0v-0.2v-0.2v-0.2v-0.3v-0.2l0-0.2l0-0.3l0,0l0-0.3l0-0.2l0-0.2l0.1-0.3v0l0-0.1l0.1-0.4
			l0-0.1l0.1-0.3v0l0.1-0.3l0.1-0.2l0-0.1l0.1-0.3l0-0.1l0.1-0.2l0.1-0.2l0-0.1l0.1-0.3l0-0.1l0.1-0.2l0.1-0.2l0.1-0.1l0.2-0.4
			l0.1-0.2l0.2-0.2l0,0l0.2-0.3l0-0.1l0.1-0.2l0.2-0.3l0,0l0.2-0.3l0.1-0.1l0.2-0.2l0.2-0.2l0,0l0.2-0.3l0.1-0.1l0.1-0.2l0.3-0.2v0
			l0.3-0.3l0.1-0.1l0.1-0.2l0.3-0.2v0l0.3-0.2l0.1-0.2l0.2-0.1l0.3-0.2l0,0l0.3-0.3l0.2-0.1l0.2-0.1l0.3-0.3h0l0.3-0.2l0.2-0.2
			l0.1-0.1l0.3-0.3l0.1,0l0.3-0.2l0.2-0.2l0.1-0.1l0.4-0.2l0.1,0l0.3-0.2l0.2-0.2l0.1,0l0.4-0.2l0.1,0l0.3-0.2l0.3-0.2l0.1,0
			l0.4-0.2l0.1,0l0.6-0.3l0.1,0l0.4-0.2l0.1-0.1l0.3-0.1l0.4-0.2l0.1,0l0.4-0.2l0.2,0l0.3-0.1l0.4-0.2l0.1,0l0.4-0.2l0.2-0.1
			l0.3-0.1l0.4-0.2l0,0l0.5-0.2l0.2-0.1l0.7-0.2l0,0V334.2l231.4-62l-282.3,47.6L0,254.6L900.2,0l900.2,254.6l-487.9,138
			l-151.6,40.6L1312.4,413.8z"/>
	</defs>
	<use xlink:href="#SVGID_1_"  style="overflow:visible;fill-rule:evenodd;clip-rule:evenodd;fill:#FFFFFF;"/>
	<clipPath id="SVGID_2_">
		<use xlink:href="#SVGID_1_"  style="overflow:visible;"/>
	</clipPath>
	<rect class="st0" width="1800.4" height="1435"/>
</g>
<g id="qAX2WG_1_" class="st1">
	
		<image style="display:inline;overflow:visible;" width="2032" height="734" id="qAX2WG" xlink:href="7A7DEA43FD1690FC.png"  transform="matrix(1.9484 0 0 1.9484 4242.5425 -2326.3669)">
	</image>
</g>
<g>
	<g>
		<path class="st2" d="M2169.1,865.9v76.5h-156.4c-38.7,0-68.9-3-90.7-9c-21.8-6-42-17.5-60.7-34.4c-18.7-16.9-32.9-39.8-42.8-68.5
			c-9.9-28.7-14.8-62.9-14.8-102.3c0-48.1,8.5-89.1,25.6-123.2c17.1-34.1,40.7-57.9,70.8-71.4c30.1-13.5,69-20.3,116.6-20.3h152.4
			v76.5h-140.9c-42.7,0-73.1,10.2-91.3,30.6c-18.2,20.4-27.3,54.4-27.3,102.1c0,52,9.2,88.9,27.6,110.8
			c18.4,21.9,49.9,32.8,94.4,32.8H2169.1z"/>
		<path class="st2" d="M2235.8,629.4h133.5c50.3,0,84.3,7.5,101.8,22.4c17.5,14.9,26.3,44.1,26.3,87.6v30.7h-87v-16.6
			c0-22.1-4-37.2-12.1-45.2c-8.1-8.1-23.4-12.1-45.8-12.1h-26.3v246.1h-90.3V629.4z"/>
		<path class="st2" d="M2758.3,875.5V629.4h90.3v306.1c0,41.1-11.1,70.9-33.4,89.5c-22.2,18.6-58.1,27.9-107.5,27.9h-161.1v-66.8
			h161.6c18.9,0,32-2.2,39.2-6.6c7.2-4.4,10.8-13,10.8-25.7v-11.4h-80.2c-26.1,0-46.6-2.3-61.7-7.1c-15.1-4.7-28.4-13.1-40.1-25.1
			c-11.7-12-19.6-25.1-23.6-39.2c-4-14.1-6.1-36.4-6.1-66.8V629.4h90.3v166.4c0,33,3,54.5,9.1,64.6c6.1,10.1,18.8,15.1,38.1,15.1
			H2758.3z"/>
		<path class="st2" d="M2938.3,629.4h157.8c31.9,0,55.4,1.7,70.4,5.1c15.1,3.4,36,15.1,62.7,35c26.7,19.9,40.1,60.3,40.1,121.1
			c0,45.8-14.2,82.6-42.5,110.2c-28.3,27.6-67.9,41.4-118.7,41.4h-79.6v117h-90.3V629.4z M3028.6,696.2v179.3h55.3c62,0,93-30,93-90
			c0-59.5-28.8-89.3-86.3-89.3H3028.6z"/>
		<path class="st2" d="M3359.6,629.4V513.1h90.3v116.3h83.6v66.8H3450V810c0,27,3,44.7,9.1,53c6.1,8.4,19,12.5,38.8,12.5h35.7v66.8
			h-65.4c-40,0-68.1-8.8-84.3-26.3c-16.2-17.6-24.3-48-24.3-91.2V696.2h-57.3v-66.8H3359.6z"/>
		<path class="st2" d="M3746.6,624.3c54.8,0,97.5,14.4,128.1,43.1c30.6,28.7,45.8,69.2,45.8,121.5c0,48.4-15.7,86.8-47.2,115
			c-31.5,28.3-74.6,42.4-129.4,42.4c-53,0-94.7-14.2-125.1-42.7c-30.3-28.5-45.5-68-45.5-118.6c0-49.3,15.6-88.4,46.9-117.3
			C3651.4,638.7,3693.6,624.3,3746.6,624.3z M3745.3,691.1c-53,0-79.6,31.5-79.6,94.5c0,62.6,27.4,93.8,82.2,93.8
			c53.5,0,80.2-31.3,80.2-93.8C3828.2,722.6,3800.5,691.1,3745.3,691.1z"/>
	</g>
	<g>
		<path class="st2" d="M1897.9,1139l53.6,130.8h-20.2l-15-39.4h-58.1l-15.4,39.4h-18.6l53.4-130.8H1897.9z M1910.6,1215.8l-22.9-61
			h-0.4l-23.3,61H1910.6z"/>
		<path class="st2" d="M2238.3,1157.6c-7-4.6-15.3-7-24.9-7c-8.2,0-15.2,1.5-21.1,4.4c-5.8,2.9-10.6,6.9-14.4,11.8
			c-3.8,4.9-6.6,10.6-8.4,17c-1.8,6.4-2.7,13-2.7,19.8c0,7.5,0.9,14.5,2.7,21.2c1.8,6.7,4.6,12.5,8.4,17.4
			c3.8,4.9,8.6,8.9,14.5,11.8c5.9,2.9,12.9,4.4,21.1,4.4c6,0,11.4-0.9,16.1-2.8c4.7-1.9,8.7-4.5,12.1-7.9c3.4-3.4,6.1-7.4,8-12
			c1.9-4.6,3.1-9.7,3.5-15h18.3c-1.8,16.5-7.8,29.3-17.9,38.5c-10.1,9.2-24,13.7-41.5,13.7c-10.6,0-19.9-1.7-27.9-5.2
			c-7.9-3.5-14.5-8.3-19.8-14.4c-5.3-6.1-9.2-13.3-11.8-21.6c-2.6-8.3-3.9-17.2-3.9-26.8c0-9.5,1.4-18.5,4.2-26.8
			c2.8-8.4,7-15.7,12.4-21.9c5.4-6.2,12.2-11.1,20.4-14.8c8.1-3.6,17.5-5.4,28-5.4c7.2,0,14,0.9,20.4,2.7c6.4,1.8,12.1,4.5,17.1,8.1
			c5,3.5,9.2,8,12.5,13.3c3.3,5.3,5.5,11.5,6.5,18.4h-18.3C2249.8,1169.2,2245.3,1162.2,2238.3,1157.6z"/>
		<path class="st2" d="M2542,1139l53.6,130.8h-20.2l-15-39.4h-58.1l-15.4,39.4h-18.6l53.4-130.8H2542z M2554.7,1215.8l-22.9-61h-0.4
			l-23.3,61H2554.7z"/>
		<path class="st2" d="M2846.6,1139c21.2,0,37.4,5.1,48.8,15.4c11.4,10.3,17.1,25.9,17.1,46.9c0,11-1.3,20.7-3.8,29.2
			c-2.6,8.5-6.5,15.6-11.9,21.4c-5.4,5.8-12.2,10.2-20.6,13.3c-8.3,3.1-18.2,4.6-29.6,4.6h-47.1V1139H2846.6z M2848.1,1255.2
			c2,0,4.6-0.2,7.7-0.5c3.1-0.3,6.3-1,9.8-2.2c3.5-1.2,6.9-2.8,10.3-5c3.4-2.2,6.4-5.2,9.1-9c2.7-3.8,4.9-8.5,6.6-14.2
			c1.7-5.7,2.6-12.6,2.6-20.6c0-7.8-0.8-14.8-2.4-21c-1.6-6.2-4.2-11.4-7.9-15.8c-3.7-4.3-8.4-7.6-14.1-9.9
			c-5.8-2.3-12.9-3.4-21.3-3.4h-30.8v101.5H2848.1z"/>
		<path class="st2" d="M3219.9,1139v14.7h-76.5v41.6h71.3v14.7h-71.3v45.3h77.1v14.7h-95.4V1139H3219.9z"/>
		<path class="st2" d="M3458.3,1139l43.3,110l43.5-110h25v130.8h-17.3V1161h-0.4l-42.9,108.9h-15.6L3451,1161h-0.4v108.9h-17.3V1139
			H3458.3z"/>
		<path class="st2" d="M3847.5,1269.9h-18.3v-53.5l-53.1-77.3h21.7l41.1,62.3l40.2-62.3h20.8l-52.5,77.3V1269.9z"/>
	</g>
</g>
</svg>
