<svg width="20" height="21" viewBox="0 0 20 21" fill="none" xmlns="http://www.w3.org/2000/svg">
<path d="M12.7204 2.01137C11.7636 2.00447 10.823 2.25918 10.0004 2.74798C9.1802 3.22817 8.49721 3.91115 8.01703 4.73136C7.52823 5.55397 7.27352 6.49451 7.28041 7.45135C7.27908 8.14882 7.40725 8.84047 7.65839 9.49115L1.23598 15.9136V18.9358H4.86264V16.518H7.28041V14.1002H9.09374L10.6806 12.5134C11.3313 12.7645 12.0229 12.8927 12.7204 12.8913C13.6772 12.8982 14.6178 12.6435 15.4404 12.1547C16.2606 11.6745 16.9436 10.9916 17.4238 10.1713C17.9126 9.34874 18.1673 8.4082 18.1604 7.45135C18.1673 6.49451 17.9126 5.55397 17.4238 4.73136C16.9436 3.91115 16.2606 3.22817 15.4404 2.74798C14.6178 2.25918 13.6772 2.00447 12.7204 2.01137ZM12.7204 0.80248C13.8946 0.792563 15.0498 1.09877 16.065 1.689C17.0708 2.26663 17.9051 3.10099 18.4828 4.10677C19.073 5.1219 19.3792 6.27715 19.3693 7.45135C19.3792 8.62556 19.073 9.7808 18.4828 10.7959C17.9051 11.8017 17.0708 12.6361 16.065 13.2137C15.0498 13.8039 13.8946 14.1101 12.7204 14.1002C12.1463 14.1009 11.5746 14.0248 11.0207 13.8738L9.8497 15.0448C9.76609 15.1307 9.66571 15.1985 9.5548 15.2439C9.44388 15.2894 9.32481 15.3116 9.20496 15.3091H8.4893V16.8202C8.49178 16.9401 8.4696 17.0591 8.42412 17.1701C8.37865 17.281 8.31086 17.3814 8.22495 17.465C8.14135 17.5509 8.04097 17.6187 7.93005 17.6641C7.81914 17.7096 7.70006 17.7318 7.58021 17.7293H6.07153V19.238C6.07401 19.3578 6.05183 19.4769 6.00635 19.5878C5.96088 19.6987 5.89308 19.7991 5.80718 19.8827C5.72357 19.9686 5.62319 20.0364 5.51228 20.0819C5.40137 20.1274 5.28229 20.1496 5.16244 20.1471H0.933759C0.813911 20.1496 0.694833 20.1274 0.58392 20.0819C0.473007 20.0364 0.372629 19.9686 0.28902 19.8827C0.203555 19.7989 0.13621 19.6984 0.0911551 19.5875C0.0461008 19.4766 0.0242969 19.3577 0.0270943 19.238V15.7999C0.02461 15.6801 0.046794 15.561 0.0922683 15.4501C0.137743 15.3392 0.205536 15.2388 0.291437 15.1552L6.29799 9.14863C6.1472 8.59549 6.07103 8.02468 6.07153 7.45135C6.06161 6.27715 6.36782 5.1219 6.95804 4.10677C7.53568 3.10099 8.37003 2.26663 9.37581 1.689C10.3909 1.09877 11.5462 0.792563 12.7204 0.80248ZM14.5337 4.88287C14.4348 4.88258 14.3369 4.90252 14.246 4.94146C14.1551 4.98041 14.0731 5.03754 14.005 5.10934C13.9332 5.17736 13.8761 5.25936 13.8372 5.35028C13.7982 5.44119 13.7783 5.53912 13.7786 5.63802C13.7783 5.73693 13.7982 5.83485 13.8372 5.92577C13.8761 6.01669 13.9332 6.09868 14.005 6.16671C14.0731 6.23851 14.1551 6.29564 14.246 6.33458C14.3369 6.37353 14.4348 6.39347 14.5337 6.39318C14.6326 6.39347 14.7306 6.37353 14.8215 6.33458C14.9124 6.29564 14.9944 6.23851 15.0624 6.16671C15.1344 6.09875 15.1916 6.01679 15.2307 5.92587C15.2698 5.83495 15.2899 5.73699 15.2897 5.63802C15.29 5.53912 15.27 5.44119 15.2311 5.35028C15.1921 5.25936 15.135 5.17736 15.0632 5.10934C14.9951 5.03744 14.913 4.98025 14.8219 4.9413C14.7308 4.90236 14.6328 4.88247 14.5337 4.88287ZM14.5337 3.8255C14.7726 3.8212 15.0098 3.86589 15.2308 3.95682C15.4517 4.04775 15.6517 4.18298 15.8184 4.35419C15.9895 4.52075 16.1247 4.72059 16.2156 4.94139C16.3065 5.16219 16.3512 5.39927 16.3471 5.63802C16.3514 5.87691 16.3067 6.11415 16.2157 6.33509C16.1248 6.55604 15.9896 6.75601 15.8184 6.92267C15.6517 7.09387 15.4517 7.22911 15.2308 7.32004C15.0098 7.41097 14.7726 7.45566 14.5337 7.45135C14.2948 7.45566 14.0576 7.41097 13.8367 7.32004C13.6157 7.22911 13.4157 7.09387 13.2491 6.92267C13.0779 6.75601 12.9426 6.55604 12.8517 6.33509C12.7608 6.11415 12.7161 5.87691 12.7204 5.63802C12.7161 5.39914 12.7608 5.1619 12.8517 4.94096C12.9426 4.72001 13.0779 4.52004 13.2491 4.35338C13.4157 4.18218 13.6157 4.04694 13.8367 3.95601C14.0576 3.86508 14.2948 3.8212 14.5337 3.8255Z" fill="#000080"/>
</svg>
