<svg width="13" height="12" viewBox="0 0 13 12" fill="none" xmlns="http://www.w3.org/2000/svg">
<path d="M0.371094 3.26796C0.408179 3.15187 0.433676 3.02882 0.484668 2.9197C0.728039 2.39267 1.14525 2.10941 1.72238 2.09548C2.29257 2.07923 2.86507 2.09084 3.43757 2.09316C3.67399 2.09316 3.83392 2.25568 3.8316 2.47393C3.82929 2.68753 3.66936 2.8338 3.43526 2.83612C2.8952 2.83844 2.35283 2.83612 1.81278 2.83612C1.36544 2.83612 1.11511 3.08454 1.11511 3.53032C1.11511 5.87528 1.11511 8.22023 1.11511 10.5652C1.11511 11.0063 1.36312 11.2571 1.80119 11.2571C4.80741 11.2571 7.81131 11.2571 10.8175 11.2571C11.2486 11.2571 11.499 11.004 11.499 10.5722C11.499 9.20233 11.499 7.8325 11.499 6.46268C11.499 6.14924 11.7887 5.95421 12.0413 6.10513C12.1248 6.15388 12.1758 6.25604 12.2407 6.33498C12.2407 7.82786 12.2407 9.32306 12.2407 10.8159C12.2337 10.8415 12.2221 10.8647 12.2175 10.8902C12.1317 11.2965 11.9162 11.6169 11.5523 11.8166C11.3993 11.9002 11.2255 11.9397 11.0609 12C7.89243 12 4.72628 12 1.55782 12C1.53232 11.9931 1.50915 11.9815 1.48365 11.9768C1.07339 11.8886 0.753535 11.6703 0.554202 11.2989C0.473079 11.1503 0.433675 10.9761 0.378047 10.8159C0.371093 8.29917 0.371094 5.78241 0.371094 3.26796Z" fill="black"/>
<path d="M12.2426 3.82794C12.1711 3.92124 12.1064 4.02388 12.0256 4.10786C11.0145 5.17389 9.99874 6.2376 8.9853 7.3013C8.8768 7.41561 8.75907 7.49025 8.59747 7.45759C8.41048 7.42027 8.29967 7.26865 8.29967 7.04471C8.29736 6.57117 8.29967 6.09531 8.29967 5.62177C8.29967 5.57978 8.29967 5.53779 8.29967 5.50047C8.28582 5.48881 8.2789 5.48181 8.27428 5.48181C7.39243 5.43516 6.54058 5.53546 5.75338 5.981C5.05159 6.37989 4.50909 6.9374 4.13049 7.65587C4.1051 7.70486 4.08201 7.75384 4.04969 7.79816C3.95735 7.9288 3.79807 7.98478 3.65263 7.94279C3.49796 7.89614 3.38484 7.77484 3.38023 7.61855C3.36637 6.88375 3.34791 6.14662 3.58568 5.43749C4.19975 3.60633 5.43942 2.47498 7.31624 2.08075C7.61866 2.01777 7.93493 2.02011 8.24427 1.98978C8.25812 1.98745 8.27428 1.98511 8.29967 1.98045C8.29967 1.93613 8.29967 1.89414 8.29967 1.85215C8.29967 1.40194 8.3066 0.949402 8.29736 0.499194C8.29275 0.270591 8.35739 0.0979728 8.57208 0C8.63441 0 8.69443 0 8.75676 0C8.84448 0.0676479 8.94375 0.123633 9.01762 0.202944C10.0218 1.25265 11.026 2.30469 12.0256 3.35907C12.1064 3.44304 12.1711 3.54568 12.2426 3.63899C12.2426 3.7043 12.2426 3.76495 12.2426 3.82794ZM4.14434 6.29592C4.17666 6.28658 4.1859 6.28659 4.19051 6.28192C4.22053 6.2516 4.25054 6.22127 4.28055 6.19094C5.09545 5.35818 6.07657 4.86831 7.23083 4.76101C7.69253 4.71902 8.16116 4.73535 8.62517 4.73068C8.9022 4.72835 9.0384 4.87298 9.04071 5.15523C9.04071 5.45382 9.04071 5.75473 9.04071 6.05332C9.04071 6.08131 9.04763 6.10697 9.05225 6.15595C9.83253 5.33718 10.5943 4.53707 11.3608 3.7323C10.5874 2.92052 9.8256 2.12041 9.04071 1.29697C9.04071 1.36929 9.04071 1.40661 9.04071 1.44393C9.04071 1.72852 9.04071 2.01077 9.04071 2.29536C9.04071 2.60094 8.90681 2.72924 8.6044 2.73624C8.26274 2.74557 7.91415 2.72691 7.58172 2.78756C5.89651 3.09547 4.79073 4.08453 4.27131 5.73374C4.2136 5.91336 4.18821 6.1023 4.14434 6.29592Z" fill="black"/>
</svg>
