<svg width="17" height="18" viewBox="0 0 17 18" fill="none" xmlns="http://www.w3.org/2000/svg">
<mask id="mask0_19_447" style="mask-type:luminance" maskUnits="userSpaceOnUse" x="0" y="0" width="17" height="18">
<path d="M0.685791 0.415405H16.8876V17.5609H0.685791V0.415405Z" fill="white"/>
</mask>
<g mask="url(#mask0_19_447)">
<path d="M8.78703 0.415405C10.0146 0.416448 11.1916 0.904391 12.0598 1.77218C12.9281 2.63997 13.4166 3.81673 13.4183 5.04428C13.4164 6.2717 12.9278 7.44826 12.0595 8.31587C11.1913 9.18349 10.0144 9.67133 8.78703 9.67237C7.55948 9.67154 6.38238 9.18379 5.514 8.31615C4.64562 7.44851 4.15688 6.27183 4.155 5.04428C4.15667 3.81659 4.64532 2.63971 5.51372 1.7719C6.38213 0.904091 7.55934 0.416239 8.78703 0.415405ZM8.78703 8.86358C9.80028 8.86295 10.7719 8.46038 11.4887 7.7442C12.2054 7.02802 12.6088 6.05674 12.6103 5.04349C12.6088 4.03025 12.2054 3.05896 11.4887 2.34279C10.7719 1.62661 9.80028 1.22403 8.78703 1.22341C7.77378 1.22403 6.80217 1.62661 6.0854 2.34279C5.36863 3.05896 4.96525 4.03025 4.96379 5.04349C4.96525 6.05674 5.36863 7.02802 6.0854 7.7442C6.80217 8.46038 7.77378 8.86295 8.78703 8.86358Z" fill="#000080"/>
<path d="M16.0914 17.5609H1.48188C1.27092 17.5607 1.06865 17.4768 0.919407 17.3277C0.770163 17.1786 0.686121 16.9764 0.685703 16.7655C0.685703 11.8221 4.54836 10.5379 6.21087 10.2116C6.84069 10.0899 7.4909 10.127 8.10278 10.3196C8.54579 10.4595 9.02117 10.4595 9.46417 10.3196C10.0761 10.127 10.7263 10.0899 11.3561 10.2116C13.017 10.5348 16.8813 11.8213 16.8813 16.7655C16.8808 16.9753 16.7977 17.1766 16.6498 17.3255C16.5019 17.4744 16.3012 17.559 16.0914 17.5609ZM6.94714 10.9494C6.75292 10.9495 6.55917 10.9683 6.36853 11.0054C4.90388 11.2907 1.49765 12.4243 1.49765 16.7655L16.0811 16.7529C16.0748 12.4212 12.6733 11.2908 11.2102 11.0062C10.7116 10.9097 10.1968 10.9393 9.71249 11.0921C9.11089 11.2817 8.46552 11.2817 7.86393 11.0921C7.5664 10.9977 7.25613 10.9496 6.94399 10.9494H6.94714Z" fill="#000080"/>
</g>
</svg>
