<?xml version="1.0" encoding="utf-8"?>
<!-- Generator: Adobe Illustrator 24.0.1, SVG Export Plug-In . SVG Version: 6.00 Build 0)  -->
<svg version="1.1" id="Layer_1" xmlns="http://www.w3.org/2000/svg" xmlns:xlink="http://www.w3.org/1999/xlink" x="0px" y="0px"
	 viewBox="0 0 376.6 165.3" style="enable-background:new 0 0 376.6 165.3;" xml:space="preserve">
<style type="text/css">
	.st0{fill:#FFFFFF;}
</style>
<path class="st0" d="M115.1,47.9c0-0.4,0-0.7,0-1c0-1.2,0-2.5,0-3.7c0-3.2,0-3.2-2.6-5.1c-5.3-3.7-11-6.1-17.2-7.5
	c-8.4-2-16.8-2.3-25.3-1.9c-6.8,0.4-13.3,1.6-19.6,4c-4.4,1.7-8.4,3.9-12,6.9c-0.6,0.4-0.8,0.9-0.8,1.6c0,1.9,0,3.8,0,5.7
	c0,0.3,0,0.6,0,1c-7.8-3.2-15.3-6.4-23-9.5c0,0.5-0.1,0.9-0.1,1.3c0,4.2,0,8.4,0,12.6c0,0.5,0.1,0.8,0.6,1.1
	c2.3,1.5,2.4,4.6,0.2,6.3c-0.5,0.4-0.4,0.7-0.3,1.1c0.8,3,1.6,6.1,2.4,9c1,3.9,2,7.9,3,11.7c0,0.2,0.1,0.4,0.1,0.7c-1.4,0-2.7,0-4,0
	c-0.2,0-0.4-0.4-0.4-0.6c-0.3-2.2-0.7-4.3-1-6.5c0,2.4,0,4.7,0,7.1c-1.6,0-3.3,0-4.9,0c0-2.3,0-4.5,0-6.8h-0.1
	c-0.3,2.3-0.7,4.5-1.1,6.8c-1.4,0-2.7,0-4.2,0C5,81.8,5,81.4,5.1,81c1.7-6.8,3.4-13.4,5.2-20.2c0.1-0.6,0.2-0.9-0.4-1.4
	c-2-1.6-1.7-5,0.6-6.2c0.4-0.2,0.6-0.5,0.6-1c0-4.9,0-9.7,0-14.6c0-0.7-0.2-1-0.8-1.2c-2.8-1.1-5.6-2.3-8.4-3.5
	c-0.4-0.2-0.9-0.5-0.9-0.9c0-0.4,0.6-0.6,0.9-0.8c9.2-3.9,18.5-7.9,27.8-11.7C40.1,15.3,50.6,11,60.9,6.7C66,4.6,71.1,2.6,76.1,0.5
	c0.3-0.1,0.7-0.1,1.1,0C89,5.3,100.6,10,112.3,14.9c12.8,5.4,25.7,10.7,38.5,16.2c0.2,0.1,0.4,0.1,0.6,0.2c0.3,0.2,0.6,0.6,0.6,0.9
	c0,0.3-0.4,0.7-0.7,0.8c-1.7,0.7-3.3,1.4-5,2.1c-10,4.2-20,8.3-30,12.4C115.8,47.6,115.5,47.7,115.1,47.9z"/>
<path class="st0" d="M118.5,115.3c-0.2,1-0.3,1.9-0.5,3c3.3,0,6.5,0,9.8,0c-0.2,1.3-0.4,2.6-0.6,3.8c-0.3,1.4-0.7,2.8-1,4.3
	c-0.1,0.5-0.3,0.6-0.8,0.6c-2.8,0-5.6,0-8.4,0c-0.5,0-0.9,0.1-1,0.7c-0.2,0.7-0.5,1.4-0.8,2.2c3.4,0,6.7,0,10,0
	c-0.2,0.5-0.3,0.8-0.4,1.1c-1,2.3-2,4.5-3,6.8c-0.2,0.5-0.5,0.6-1,0.6c-3,0-6.1,0-9,0c-0.6,0-0.9,0.2-1.2,0.7
	c-0.4,0.7-0.9,1.3-1.4,2.1c3.5,0,6.8,0,10.3,0c-0.7,1.2-1.3,2.2-2,3.2c-0.7,1.1-1.6,2.1-2.3,3.2c-0.3,0.5-0.8,0.6-1.3,0.6
	c-3.3,0-6.6,0-9.8,0c-0.5,0-1,0.3-1.4,0.6c-0.7,0.6-1.3,1.2-2.1,2c3.9,0,7.6,0,11.2,0c0,0.1,0.1,0.1,0.1,0.2
	c-0.8,0.8-1.6,1.6-2.5,2.3c-8,6.6-17.1,10.7-27.4,11.5c-14.2,1.2-26.7-2.9-37.6-12.1c-9.1-7.9-14.7-17.9-16.9-29.7
	c-1.1-6.2-1.1-12.3-0.2-18.5c1.4-10,5.7-18.8,12.2-26.4c7-8,15.4-13.5,25.8-16c5.4-1.3,10.8-1.5,16.4-0.9c6.5,0.7,12.4,2.7,18,5.9
	c3.8,2.2,7.4,4.9,10.5,8.2c-3,0-5.8,0-8.9,0c1,0.9,1.9,1.7,2.7,2.4c0.2,0.2,0.6,0.1,0.8,0.1c2.6,0,5.3,0,7.9,0c0.3,0,0.8,0.1,1,0.4
	c1.4,1.7,2.8,3.4,4.2,5.1c0.1,0.1,0.1,0.2,0.2,0.4c-3,0-5.9,0-8.9,0c0.6,0.8,1,1.6,1.5,2.3c0.1,0.2,0.5,0.2,0.8,0.2
	c2.6,0,5.2,0,7.8,0c0.6,0,0.9,0.2,1.2,0.7c1.2,2.1,2.4,4.3,3.7,6.6c-3.3,0-6.2,0-9.2,0c0.2,0.9,0.4,1.7,0.7,2.4
	c0.1,0.2,0.5,0.3,0.7,0.3c2.7,0,5.3,0,8,0c0.3,0,0.8,0.2,0.9,0.4c0.8,2.6,1.6,5.2,2.5,7.9c-3.4,0-6.5,0-9.6,0c0.1,1,0.2,1.9,0.3,2.9
	c3.2,0,6.3,0,9.5,0c0.1,2.9,0.3,5.8,0.4,8.7C124.9,115.3,121.7,115.3,118.5,115.3z M113.9,110.7c-0.2-2.3-0.3-4.7-0.6-7
	c-1-8.1-4-15.3-9.3-21.5c-9.7-11.1-22.1-15.1-36.3-12.3c-12.7,2.5-21.8,10.3-27.5,21.8c-4.3,8.5-5.2,17.5-4.1,26.7
	c1.5,11.5,6.8,21.1,16.1,28.1c10.8,8.2,22.8,10.1,35.5,5.4c8.5-3.2,14.8-8.9,19.5-16.6C111.8,127.8,113.8,119.6,113.9,110.7z"/>
<path class="st0" d="M112.5,69.4C93.6,50.9,60.3,50,40.3,69.2c0-0.4-0.1-0.8-0.1-1.1c0-8.5,0-16.8,0-25.3c0-0.7,0.2-1.1,0.7-1.5
	c3.7-3.1,8-5,12.5-6.5c8.1-2.6,16.3-3.4,24.8-3.3c6.5,0.1,12.8,0.8,19,2.5c5.4,1.5,10.3,3.6,14.7,7.2c0.5,0.4,0.7,0.8,0.7,1.4
	c0,8.6,0,17.1,0,25.7C112.5,68.7,112.5,69.1,112.5,69.4z"/>
<g>
	<path class="st0" d="M148.4,83.5c1.2-2.2,2.9-3.8,5-5c2.1-1.2,4.5-1.8,7.2-1.8c3.3,0,6.1,0.9,8.5,2.6c2.4,1.7,3.9,4.1,4.7,7.1h-7.5
		c-0.6-1.1-1.4-2-2.4-2.6c-1-0.6-2.2-0.9-3.5-0.9c-2.1,0-3.8,0.7-5.1,2.2c-1.3,1.4-1.9,3.4-1.9,5.8c0,2.4,0.6,4.3,1.9,5.8
		c1.3,1.5,3,2.2,5.1,2.2c1.3,0,2.4-0.3,3.5-0.9c1.1-0.6,1.8-1.5,2.4-2.6h7.5c-0.8,3-2.4,5.4-4.7,7.1c-2.4,1.7-5.2,2.6-8.5,2.6
		c-2.7,0-5.1-0.6-7.2-1.8c-2.1-1.2-3.8-2.9-5-5c-1.2-2.1-1.8-4.6-1.8-7.3C146.6,88,147.2,85.7,148.4,83.5z"/>
	<path class="st0" d="M192,104.7l-5.8-10.4h-1.6v10.4h-6.8V76.9h11.3c2.2,0,4.1,0.4,5.6,1.2c1.5,0.8,2.7,1.8,3.5,3.2
		c0.8,1.3,1.2,2.8,1.2,4.5c0,1.9-0.5,3.5-1.6,5c-1,1.5-2.6,2.5-4.6,3.1l6.4,10.9L192,104.7L192,104.7z M184.6,89.4h4.2
		c1.2,0,2.2-0.3,2.8-0.9c0.6-0.6,0.9-1.5,0.9-2.6c0-1.1-0.3-1.9-0.9-2.6c-0.6-0.6-1.6-0.9-2.8-0.9h-4.2V89.4z"/>
	<path class="st0" d="M227.4,77l-9.5,18.5v9.1h-6.8v-9.1L201.5,77h7.7l5.4,11.5l5.4-11.5H227.4z"/>
	<path class="st0" d="M250.1,90.3c-0.7,1.3-1.9,2.4-3.4,3.2c-1.5,0.8-3.4,1.2-5.7,1.2h-4.2v9.9h-6.8V76.9H241c2.2,0,4.1,0.4,5.6,1.2
		c1.5,0.8,2.7,1.8,3.5,3.2c0.8,1.3,1.2,2.9,1.2,4.6C251.2,87.4,250.8,88.9,250.1,90.3z M243.4,88.5c0.6-0.6,1-1.5,1-2.6
		c0-1.1-0.3-2-1-2.6c-0.6-0.6-1.6-1-2.9-1h-3.7v7.1h3.7C241.8,89.4,242.8,89.1,243.4,88.5z"/>
	<path class="st0" d="M274.6,77v5.4h-7.4v22.4h-6.8V82.4h-7.3V77H274.6z"/>
	<path class="st0" d="M284,103.2c-2.2-1.2-3.9-2.9-5.2-5.1s-1.9-4.6-1.9-7.4c0-2.7,0.6-5.2,1.9-7.3c1.3-2.2,3-3.9,5.2-5.1
		c2.2-1.2,4.6-1.8,7.2-1.8c2.6,0,5,0.6,7.2,1.8c2.2,1.2,3.9,2.9,5.2,5.1c1.3,2.2,1.9,4.6,1.9,7.3c0,2.7-0.6,5.2-1.9,7.4
		c-1.3,2.2-3,3.9-5.2,5.1c-2.2,1.2-4.6,1.8-7.2,1.8C288.5,104.9,286.2,104.4,284,103.2z M296.5,96.5c1.3-1.5,2-3.4,2-5.8
		c0-2.4-0.7-4.4-2-5.8c-1.3-1.5-3.1-2.2-5.3-2.2s-4,0.7-5.4,2.2c-1.3,1.5-2,3.4-2,5.8c0,2.4,0.7,4.4,2,5.8c1.3,1.5,3.1,2.2,5.4,2.2
		C293.3,98.7,295.1,98,296.5,96.5z"/>
	<path class="st0" d="M154.6,121.7v5.8h9v5.1h-9v6.2h10.2v5.4h-17v-27.7h17v5.4H154.6z"/>
	<path class="st0" d="M187.2,118.1c2.2,1.2,3.9,2.8,5.1,4.9c1.2,2.1,1.8,4.5,1.8,7.3c0,2.7-0.6,5.1-1.8,7.3
		c-1.2,2.1-2.9,3.8-5.1,4.9c-2.2,1.2-4.8,1.7-7.7,1.7h-10.3v-27.7h10.3C182.4,116.4,185,117,187.2,118.1z M185.1,136.2
		c1.4-1.4,2.1-3.4,2.1-6c0-2.6-0.7-4.6-2.1-6s-3.4-2.1-6-2.1H176v16.2h3.2C181.6,138.4,183.6,137.6,185.1,136.2z"/>
	<path class="st0" d="M204.5,116.4v16.5c0,1.7,0.4,3,1.2,3.8c0.8,0.9,2,1.3,3.6,1.3s2.8-0.5,3.7-1.3c0.8-0.9,1.3-2.2,1.3-3.8v-16.5
		h6.8v16.5c0,2.5-0.5,4.6-1.6,6.3c-1.1,1.7-2.5,3-4.3,3.9c-1.8,0.9-3.8,1.3-6,1.3c-2.2,0-4.2-0.4-5.9-1.3c-1.7-0.9-3.1-2.2-4.1-3.9
		c-1-1.7-1.5-3.8-1.5-6.3v-16.5H204.5z"/>
	<path class="st0" d="M226.3,122.8c1.2-2.2,2.8-3.8,5-5c2.1-1.2,4.5-1.8,7.2-1.8c3.3,0,6.1,0.9,8.5,2.6c2.4,1.7,3.9,4.1,4.7,7.1
		h-7.5c-0.6-1.1-1.4-2-2.4-2.6s-2.2-0.9-3.5-0.9c-2.1,0-3.8,0.7-5.1,2.2c-1.3,1.4-1.9,3.4-1.9,5.8c0,2.4,0.6,4.3,1.9,5.8
		c1.3,1.5,3,2.2,5.1,2.2c1.3,0,2.4-0.3,3.5-0.9c1-0.6,1.8-1.5,2.4-2.6h7.5c-0.8,3-2.4,5.4-4.7,7.1c-2.4,1.7-5.2,2.6-8.5,2.6
		c-2.7,0-5.1-0.6-7.2-1.8c-2.1-1.2-3.8-2.9-5-5c-1.2-2.1-1.8-4.6-1.8-7.3C224.5,127.4,225.1,125,226.3,122.8z"/>
	<path class="st0" d="M273,139.2h-10.3L261,144h-7.1l10-27.7h7.9l10,27.7h-7.2L273,139.2z M271.3,134.1l-3.5-10.2l-3.5,10.2H271.3z"
		/>
	<path class="st0" d="M304.7,116.4v5.4h-7.4v22.4h-6.8v-22.4h-7.4v-5.4H304.7z"/>
	<path class="st0" d="M314.9,116.4v27.7h-6.8v-27.7H314.9z"/>
	<path class="st0" d="M325.7,142.5c-2.2-1.2-3.9-2.9-5.2-5.1c-1.3-2.2-1.9-4.6-1.9-7.4c0-2.7,0.6-5.2,1.9-7.3c1.3-2.2,3-3.9,5.2-5.1
		c2.2-1.2,4.6-1.8,7.2-1.8s5,0.6,7.2,1.8c2.2,1.2,3.9,2.9,5.2,5.1c1.3,2.2,1.9,4.6,1.9,7.3c0,2.7-0.6,5.2-1.9,7.4
		c-1.3,2.2-3,3.9-5.2,5.1c-2.2,1.2-4.6,1.8-7.2,1.8C330.3,144.3,327.9,143.7,325.7,142.5z M338.2,136c1.3-1.5,2-3.4,2-5.8
		c0-2.4-0.7-4.4-2-5.8c-1.3-1.5-3.1-2.2-5.3-2.2c-2.2,0-4,0.7-5.4,2.2c-1.3,1.5-2,3.4-2,5.8c0,2.4,0.7,4.4,2,5.8
		c1.3,1.5,3.1,2.2,5.4,2.2C335.1,138.2,336.9,137.4,338.2,136z"/>
	<path class="st0" d="M375.5,144h-6.8l-11.2-17.1V144h-6.8v-27.7h6.8l11.2,17.2v-17.2h6.8V144z"/>
</g>
<path class="st0" d="M87.8,119.4l9.2,5.4c-2.8,4.6-7.3,8.1-12.6,9.7v9.4H78v-8.4c-0.4,0-0.8,0-1.2,0c-1.9,0-3.7-0.2-5.5-0.6v8.9H65
	v-11.1c-7.7-4-12.6-12-12.6-21.6s5-17.6,12.7-21.6H65V78.3h6.4v9c1.7-0.4,3.6-0.6,5.5-0.6c0.4,0,0.8,0,1.2,0v-8.6h6.4v9.6
	c5.3,1.7,9.7,5.1,12.6,9.6l-9.2,5.4c-2.1-3.6-6.1-5.8-10.8-5.8c-8.3,0-13.6,5.6-13.6,13.9s5.4,13.9,13.6,13.9
	C81.7,125.1,85.8,122.9,87.8,119.4z"/>
</svg>
