<svg width="29" height="28" viewBox="0 0 29 28" fill="none" xmlns="http://www.w3.org/2000/svg">
<path d="M27.1811 28C23.8367 28 20.5767 27.2544 17.4013 25.7631C14.2259 24.2719 11.413 22.3015 8.96245 19.852C6.51193 17.4025 4.54156 14.5896 3.05134 11.4131C1.56112 8.23667 0.81549 4.97674 0.814453 1.63333C0.814453 1.16667 0.970009 0.777778 1.28112 0.466667C1.59223 0.155555 1.98112 0 2.44779 0H8.74779C9.11075 0 9.43482 0.116667 9.72001 0.35C10.0052 0.583333 10.1737 0.881481 10.2256 1.24444L11.2367 6.68889C11.2885 7.05185 11.2818 7.38267 11.2165 7.68133C11.1511 7.98 11.0023 8.24548 10.77 8.47778L7.03668 12.2889C8.12556 14.1556 9.48668 15.9056 11.12 17.5389C12.7533 19.1722 14.5552 20.5852 16.5256 21.7778L20.1811 18.1222C20.4145 17.8889 20.7193 17.7141 21.0958 17.598C21.4722 17.4819 21.8414 17.4492 22.2033 17.5L27.57 18.5889C27.933 18.6667 28.2311 18.8419 28.4645 19.1147C28.6978 19.3874 28.8145 19.7047 28.8145 20.0667V26.3667C28.8145 26.8333 28.6589 27.2222 28.3478 27.5333C28.0367 27.8444 27.6478 28 27.1811 28Z" fill="#000080"/>
</svg>
