<svg width="24" height="29" viewBox="0 0 24 29" fill="none" xmlns="http://www.w3.org/2000/svg">
<path d="M11.8145 14.334C12.6051 14.334 13.2821 14.0544 13.8456 13.4951C14.4082 12.9367 14.6895 12.2652 14.6895 11.4805C14.6895 10.6958 14.4082 10.0238 13.8456 9.46451C13.2821 8.90617 12.6051 8.62701 11.8145 8.62701C11.0238 8.62701 10.3472 8.90617 9.7847 9.46451C9.2212 10.0238 8.93945 10.6958 8.93945 11.4805C8.93945 12.2652 9.2212 12.9367 9.7847 13.4951C10.3472 14.0544 11.0238 14.334 11.8145 14.334ZM11.8145 28.0665C11.6228 28.0665 11.4311 28.0308 11.2395 27.9595C11.0478 27.8882 10.8801 27.793 10.7363 27.6741C7.23841 24.6066 4.62695 21.7593 2.90195 19.1322C1.17695 16.5041 0.314453 14.0487 0.314453 11.7659C0.314453 8.19898 1.47068 5.35737 3.78314 3.24102C6.09464 1.12467 8.77174 0.0664978 11.8145 0.0664978C14.8572 0.0664978 17.5343 1.12467 19.8458 3.24102C22.1582 5.35737 23.3145 8.19898 23.3145 11.7659C23.3145 14.0487 22.452 16.5041 20.727 19.1322C19.002 21.7593 16.3905 24.6066 12.8926 27.6741C12.7488 27.793 12.5811 27.8882 12.3895 27.9595C12.1978 28.0308 12.0061 28.0665 11.8145 28.0665Z" fill="#000080"/>
</svg>
