<svg width="40" height="28" viewBox="0 0 40 28" fill="none" xmlns="http://www.w3.org/2000/svg">
<path d="M0.323693 8.27277C0.72111 8.5348 1.03535 8.75004 1.35883 8.96528C6.32192 12.3249 11.2943 15.6752 16.2573 19.0348C18.5772 20.5976 21.0448 20.607 23.3831 19.0348C28.5403 15.5535 33.6882 12.0722 38.8454 8.58159C38.9748 8.49737 39.1134 8.41314 39.289 8.29148C39.2983 8.45993 39.3075 8.59095 39.3075 8.71261C39.3075 13.9813 39.3075 19.2407 39.3075 24.5094C39.3075 26.5589 38.0136 27.9252 35.9896 28C35.8787 28 35.777 28 35.6661 28C25.0929 28 14.5198 28 3.9559 28C3.10561 28 2.30154 27.869 1.61761 27.3263C0.72111 26.615 0.314453 25.6885 0.314453 24.5375C0.323695 19.25 0.314453 13.9533 0.314453 8.65646C0.323695 8.57223 0.323693 8.46929 0.323693 8.27277Z" fill="#000080"/>
<path d="M19.8439 0C25.2044 0 30.5557 0 35.9162 0C37.6445 0 38.9754 1.05749 39.2434 2.73262C39.3543 3.39706 39.3081 4.08022 39.2896 4.75401C39.2896 4.87567 39.1047 5.0254 38.9753 5.11899C33.6333 8.73129 28.2913 12.3342 22.9493 15.9465C22.5426 16.2273 22.1267 16.4987 21.7108 16.7794C20.4446 17.6217 19.16 17.6217 17.8938 16.7607C12.7828 13.3075 7.67184 9.86364 2.56088 6.41043C1.89543 5.96123 1.22075 5.52139 0.564546 5.05348C0.444396 4.95989 0.333489 4.75401 0.333489 4.60428C0.333489 3.93048 0.296523 3.23797 0.416672 2.58289C0.675455 1.14171 1.89543 0.112301 3.33722 0.0187177C3.54055 0.00935943 3.73464 0 3.93797 0C9.24302 0 14.5481 0 19.8439 0Z" fill="#000080"/>
</svg>
